# xmcd
#
# Track frame offsets: 
#        150
#        19707
#        41567
#        60147
#        72475
#        100155
#        123815
#        143125
#        159742
#        179242
#        201057
#        220862
#        245222
#        266522
#        285902
#        306685
#
# Disc length: 4415 seconds
#
# Revision: 1
# Processed by: cddbd v1.5.2PL0 Copyright (c) Steve Scherf et al.
# Submitted via: ExactAudioCopy v1.0b3
#
DISCID=f0113d10
DTITLE=Various Artist - La Noche Cubana 10
DYEAR=2000
DGENRE=Salsa
TTITLE0=José Alberto 'El Canario' - Usted no me conoce
TTITLE1=David Cedeño - Muy gorda para mi
TTITLE2=Ricardo Lemvo y makina loca - Mambo yo yo
TTITLE3=Adalberto Alvarez - Llegó la orquesta
TTITLE4=Bamboleo - Pelicula vieja
TTITLE5=David Calzado y la Charange Habanera - Lo siento por ti
TTITLE6=Frankie Ruiz - Vuelvo a nacer
TTITLE7=Lorena - A sangre y fuego
TTITLE8=Cheito - Baila sonero
TTITLE9=Pasión Juvenil - Señora luna
TTITLE10=Tamayo y su salsa am - No tiene precio
TTITLE11=Los Van Van -  Aquí el que baila gana
TTITLE12=Yolanda Rayo - Dime la verdad
TTITLE13=Charanga Forever - Mi mecanica
TTITLE14=Lorena - Desnúdame
TTITLE15=Tamayo y su salsa am - El domino
EXTD=YEAR: 2000
EXTT0=
EXTT1=
EXTT2=
EXTT3=
EXTT4=
EXTT5=
EXTT6=
EXTT7=
EXTT8=
EXTT9=
EXTT10=
EXTT11=
EXTT12=
EXTT13=
EXTT14=
EXTT15=
PLAYORDER=
